<svg width="419" height="132" viewBox="0 0 419 132" fill="none" xmlns="http://www.w3.org/2000/svg">
<g filter="url(#filter0_d_327_305)">
<rect x="6" y="4" width="403" height="72" rx="36" fill="#FDF9EF"/>
<rect x="45" y="86" width="325" height="34" rx="17" fill="#FDF9EF"/>
<path d="M196.571 47.0616C196.108 47.3611 194.198 53.859 193.363 55.1606C190.96 58.9003 185.449 57.4643 185.218 52.9499L196.561 23.4254C199.467 19.3759 204.163 19.8614 206.325 24.3552C208.849 29.6031 215.596 46.1628 216.783 51.421C218.1 57.2267 212.087 59.5718 209.02 54.9437C207.994 53.4045 206.566 47.7847 205.691 47.2372C205.048 46.8446 197.043 46.762 196.571 47.0616ZM202.433 38.6216C202.554 37.3509 202.011 36.1216 201.086 35.2952L199.738 38.6112H202.443L202.433 38.6216Z" fill="#FF5959"/>
<path d="M202.433 38.6216H199.728L201.076 35.2952C202.011 36.1216 202.544 37.3509 202.423 38.6216H202.433Z" fill="#FFDEBD"/>
</g>
<path d="M28.9302 36.0849V54.5805C28.9302 55.0429 28.8445 55.5493 28.6516 56.0558C28.4801 56.5622 28.2229 57.0025 27.88 57.3989C27.4942 57.8392 27.0226 58.1695 26.4439 58.4338C25.8867 58.72 25.2437 58.8521 24.4935 58.8521C23.7433 58.8521 23.1218 58.72 22.6074 58.4338C22.0287 58.1695 21.5786 57.8392 21.2356 57.3989C20.8498 56.9585 20.5712 56.4961 20.3997 56.0117C20.1854 55.5053 20.0782 55.0209 20.0782 54.5365V24.8114C20.0782 24.349 20.1854 23.8646 20.3997 23.3362C20.5712 22.8518 20.8498 22.3894 21.2356 21.949C21.6214 21.5527 22.093 21.2004 22.6717 20.9141C23.1861 20.6719 23.8076 20.5398 24.5578 20.5398C25.9724 20.5398 27.0655 21.0022 27.88 21.949L38.1679 33.3766L48.7131 22.0591C49.0989 21.6628 49.5919 21.3325 50.1705 21.0683C50.7278 20.8261 51.3494 20.694 52.0138 20.694C52.7425 20.694 53.3855 20.8261 53.9642 21.0683C54.4786 21.3325 54.9287 21.6628 55.3145 22.0591C55.7003 22.4775 56.0004 22.9178 56.2147 23.4022C56.3862 23.9087 56.4719 24.4151 56.4719 24.9215V54.6466C56.4719 55.1089 56.3862 55.6154 56.2147 56.1218C56.0004 56.6282 55.7218 57.0686 55.3574 57.4649C54.9716 57.9053 54.5215 58.2356 54.0071 58.4778C53.4284 58.764 52.7854 58.9182 52.0567 58.9182C51.3279 58.9182 50.6849 58.764 50.1705 58.4778C49.6133 58.2356 49.1632 57.8833 48.8203 57.4649C48.4345 57.0246 48.1558 56.5622 47.9629 56.0778C47.7486 55.5713 47.6629 55.0869 47.6629 54.6025V36.1069L40.6756 43.5492C40.397 43.8355 40.0755 44.0777 39.6897 44.3199C39.261 44.54 38.7895 44.6281 38.2537 44.6281C37.7607 44.6281 37.332 44.518 36.9462 44.3199C36.5176 44.0997 36.1746 43.8575 35.896 43.5492L28.9088 36.1069L28.9302 36.0849Z" fill="#395596"/>
<path d="M64.5165 54.5365V24.8114C64.5165 24.349 64.6236 23.8646 64.838 23.3362C65.0094 22.8518 65.2881 22.3894 65.6739 21.949C66.0597 21.5527 66.5312 21.2004 67.1099 20.9141C67.6243 20.6719 68.2459 20.5398 68.996 20.5398C69.7462 20.5398 70.3892 20.6719 70.9465 20.9141C71.4823 21.2004 71.9324 21.5527 72.3182 21.949C72.704 22.3454 73.0041 22.7857 73.1969 23.2922C73.3684 23.7986 73.4756 24.305 73.4756 24.8114V54.4704C73.4756 54.9328 73.3898 55.4392 73.1969 55.9456C73.0255 56.4521 72.7683 56.8924 72.4039 57.2888C72.0181 57.7292 71.5466 58.0594 70.9893 58.3237C70.4106 58.6099 69.7676 58.742 69.0389 58.742C68.3102 58.742 67.71 58.6319 67.1528 58.3677C66.5741 58.1035 66.1025 57.7732 65.7167 57.3769C65.3309 56.9805 65.0309 56.5401 64.838 56.0337C64.6236 55.5273 64.5165 55.0209 64.5165 54.5145V54.5365Z" fill="#4C90C1"/>
<path d="M90.3722 36.8335V54.5364C90.3722 54.9988 90.2865 55.5053 90.0936 56.0117C89.9221 56.5181 89.6649 56.9585 89.322 57.3548C88.9362 57.7952 88.4646 58.1255 87.8859 58.3897C87.3287 58.6759 86.6857 58.808 85.9355 58.808C85.1854 58.808 84.5638 58.6759 84.0494 58.3897C83.4707 58.1255 83.0206 57.7952 82.6777 57.3548C82.2919 56.9145 82.0132 56.4521 81.8418 55.9677C81.6274 55.4612 81.5203 54.9768 81.5203 54.4924V24.8334C81.5203 24.327 81.6274 23.8206 81.8418 23.3141C82.0132 22.8297 82.2919 22.3673 82.6777 21.927C83.0635 21.5306 83.535 21.2004 84.1137 20.9141C84.6281 20.6499 85.2497 20.5178 85.9998 20.5178C86.75 20.5178 87.393 20.6719 88.0145 20.9361C88.5932 21.2664 89.0862 21.6628 89.472 22.0811L106.447 42.2501V24.8775C106.447 24.4151 106.554 23.9307 106.747 23.4022C106.919 22.9178 107.197 22.4554 107.605 22.015C107.99 21.6187 108.462 21.2664 109.019 20.9802C109.555 20.738 110.177 20.6059 110.905 20.6059C111.634 20.6059 112.277 20.738 112.834 20.9802C113.37 21.2664 113.82 21.6187 114.206 22.015C114.592 22.4114 114.892 22.8518 115.085 23.3582C115.256 23.8646 115.363 24.349 115.363 24.8334V54.5585C115.363 55.0209 115.278 55.5273 115.085 56.0337C114.87 56.5401 114.592 56.9805 114.249 57.3768C113.863 57.8172 113.413 58.1475 112.877 58.4117C112.32 58.698 111.677 58.8301 110.948 58.8301C110.219 58.8301 109.534 58.6759 108.933 58.3456C108.333 58.0594 107.862 57.6631 107.476 57.2227L90.3508 36.8776L90.3722 36.8335Z" fill="#4EB28A"/>
<path d="M123.408 54.5365V24.8114C123.408 24.349 123.516 23.8646 123.73 23.3362C123.901 22.8518 124.18 22.3894 124.566 21.949C124.952 21.5527 125.423 21.2004 126.002 20.9141C126.516 20.6719 127.138 20.5398 127.888 20.5398C128.638 20.5398 129.281 20.6719 129.838 20.9141C130.374 21.2004 130.824 21.5527 131.21 21.949C131.596 22.3454 131.896 22.7857 132.089 23.2922C132.26 23.7986 132.368 24.305 132.368 24.8114V54.4704C132.368 54.9328 132.282 55.4392 132.089 55.9456C131.917 56.4521 131.66 56.8924 131.296 57.2888C130.91 57.7292 130.439 58.0594 129.881 58.3237C129.303 58.6099 128.66 58.742 127.931 58.742C127.202 58.742 126.602 58.6319 126.045 58.3677C125.466 58.1035 124.995 57.7732 124.609 57.3769C124.223 56.9805 123.923 56.5401 123.73 56.0337C123.516 55.5273 123.408 55.0209 123.408 54.5145V54.5365Z" fill="#FBBC5D"/>
<path d="M149.264 36.0849V54.5805C149.264 55.0429 149.178 55.5493 148.986 56.0558C148.814 56.5622 148.557 57.0025 148.214 57.3989C147.828 57.8392 147.357 58.1695 146.778 58.4338C146.221 58.72 145.578 58.8521 144.827 58.8521C144.077 58.8521 143.456 58.72 142.941 58.4338C142.363 58.1695 141.913 57.8392 141.57 57.3989C141.184 56.9585 140.905 56.4961 140.734 56.0117C140.519 55.5053 140.412 55.0209 140.412 54.5365V24.8114C140.412 24.349 140.519 23.8646 140.734 23.3362C140.905 22.8518 141.184 22.3894 141.57 21.949C141.955 21.5527 142.427 21.2004 143.006 20.9141C143.52 20.6719 144.142 20.5398 144.892 20.5398C146.306 20.5398 147.399 21.0022 148.214 21.949L158.502 33.3766L169.047 22.0591C169.433 21.6628 169.926 21.3325 170.505 21.0683C171.062 20.8261 171.683 20.694 172.348 20.694C173.077 20.694 173.72 20.8261 174.298 21.0683C174.813 21.3325 175.263 21.6628 175.649 22.0591C176.034 22.4775 176.334 22.9178 176.549 23.4022C176.72 23.9087 176.806 24.4151 176.806 24.9215V54.6466C176.806 55.1089 176.72 55.6154 176.549 56.1218C176.334 56.6282 176.056 57.0686 175.691 57.4649C175.306 57.9053 174.855 58.2356 174.341 58.4778C173.762 58.764 173.119 58.9182 172.391 58.9182C171.662 58.9182 171.019 58.764 170.505 58.4778C169.947 58.2356 169.497 57.8833 169.154 57.4649C168.768 57.0246 168.49 56.5622 168.297 56.0778C168.083 55.5713 167.997 55.0869 167.997 54.6025V36.1069L161.01 43.5492C160.731 43.8355 160.409 44.0777 160.024 44.3199C159.595 44.54 159.123 44.6281 158.588 44.6281C158.095 44.6281 157.666 44.518 157.28 44.3199C156.852 44.0997 156.509 43.8575 156.23 43.5492L149.243 36.1069L149.264 36.0849Z" fill="#FB795B"/>
<path d="M206.391 23.8426L217.686 52.9731C217.879 53.4135 217.986 53.9199 217.986 54.4704C217.986 54.9328 217.9 55.4392 217.729 55.9456C217.515 56.452 217.214 56.8924 216.829 57.2887C216.443 57.6851 215.993 58.0153 215.457 58.2796C214.9 58.5658 214.257 58.6979 213.528 58.6979C212.435 58.6979 211.556 58.4117 210.849 57.8392C210.141 57.2667 209.649 56.6062 209.37 55.9016L206.476 48.3052C206.305 48.0189 206.091 47.8868 205.855 47.8868H196.981C196.874 47.8868 196.767 47.9088 196.66 47.9749C196.531 48.0409 196.424 48.151 196.36 48.3052L193.424 55.9016C193.145 56.6282 192.652 57.2667 191.966 57.8392C191.259 58.4117 190.359 58.6979 189.265 58.6979C188.558 58.6979 187.937 58.5658 187.379 58.2796C186.801 58.0153 186.351 57.6851 186.008 57.2887C185.622 56.8924 185.343 56.452 185.172 55.9456C184.957 55.4392 184.85 54.9548 184.85 54.4704C184.85 53.9419 184.936 53.4355 185.129 52.9731L196.424 23.8426C196.767 22.9398 197.41 22.1471 198.31 21.4646C199.168 20.804 200.218 20.4737 201.461 20.4737C202.704 20.4737 203.733 20.826 204.612 21.4866C205.469 22.1912 206.069 22.9618 206.391 23.8205V23.8426ZM201.418 35.3803C201.14 35.9968 200.882 36.5913 200.647 37.2078C200.389 37.8464 200.154 38.5069 199.896 39.1455C199.896 39.2115 199.854 39.2996 199.789 39.3656H202.94C202.94 39.3656 202.918 39.2335 202.854 39.0794C202.79 38.7932 202.683 38.4849 202.533 38.1766C202.404 37.8464 202.254 37.5161 202.125 37.1638C202.018 36.8335 201.911 36.5252 201.804 36.239C201.675 35.9528 201.547 35.6665 201.44 35.3803H201.418Z" fill="#FA4C71"/>
<path d="M240.434 58.6318C239.234 58.6318 238.033 58.5658 236.812 58.4336C235.59 58.2795 234.411 58.0373 233.254 57.663C232.053 57.3327 230.939 56.8703 229.889 56.2538C228.838 55.6593 227.895 54.8666 227.081 53.8758C226.374 53.0611 226.031 52.1363 226.031 51.1235C226.031 50.6611 226.138 50.1767 226.352 49.6482C226.524 49.1638 226.802 48.7014 227.188 48.2611C227.531 47.8207 227.981 47.4684 228.56 47.1822C229.074 46.9179 229.696 46.7858 230.446 46.7858C231.303 46.7858 232.011 46.962 232.546 47.2923C233.061 47.6446 233.618 48.1069 234.218 48.6354C234.561 48.9657 235.011 49.2079 235.526 49.406C236.04 49.6262 236.597 49.7583 237.197 49.8244C237.755 49.9345 238.312 50.0005 238.869 50.0446C239.426 50.0886 239.919 50.1106 240.391 50.1106C242.041 50.1106 243.392 49.8684 244.442 49.406C245.449 48.9436 245.964 48.129 245.964 46.984C245.964 46.5216 245.899 46.1693 245.771 45.9051C245.599 45.6188 245.235 45.3546 244.72 45.0904C244.142 44.8922 243.563 44.6721 242.941 44.4519C242.298 44.2757 241.677 44.1216 241.098 43.9675C240.498 43.8353 240.048 43.7473 239.726 43.7032C238.183 43.3069 236.64 42.8665 235.097 42.3601C233.554 41.8537 232.182 41.1711 230.96 40.2904C229.739 39.4757 228.731 38.3968 227.96 37.0536C227.188 35.7545 226.802 34.1031 226.802 32.0774C226.802 30.404 227.145 28.8407 227.852 27.3875C228.538 25.9563 229.524 24.7232 230.746 23.6884C231.946 22.6755 233.361 21.8829 235.054 21.3104C236.747 20.7379 238.548 20.4296 240.477 20.4296C242.406 20.4296 244.335 20.7159 246.092 21.3104C247.807 21.8829 249.329 22.8737 250.657 24.2829C251.493 25.1416 251.922 26.1545 251.922 27.2994C251.922 27.7618 251.836 28.2462 251.643 28.7526C251.429 29.2591 251.15 29.7215 250.807 30.0958C250.422 30.4921 249.972 30.8224 249.436 31.0646C248.878 31.3508 248.235 31.4829 247.507 31.4829C246.392 31.4829 245.406 31.1306 244.57 30.404C244.227 30.1178 243.906 29.8756 243.606 29.6554C243.327 29.4793 243.049 29.3251 242.77 29.215C242.449 29.127 242.127 29.0389 241.784 29.0169C241.441 28.9728 241.012 28.9508 240.52 28.9508C239.126 28.9508 237.969 29.237 237.047 29.8095C236.126 30.404 235.676 31.1967 235.676 32.2316C235.676 32.738 235.74 33.0903 235.89 33.2444C236.126 33.5307 236.512 33.7949 237.047 34.0151C237.54 34.2573 238.098 34.4775 238.719 34.6536C239.298 34.8298 239.898 34.9839 240.498 35.072C241.055 35.2261 241.505 35.3362 241.87 35.4022C243.392 35.7545 244.935 36.1949 246.478 36.7013C248.021 37.2078 249.393 37.8683 250.636 38.7491C251.858 39.6078 252.865 40.6867 253.637 41.9858C254.365 43.3069 254.73 44.9583 254.73 46.94C254.73 48.8115 254.365 50.4629 253.637 51.9162C252.908 53.3474 251.901 54.5584 250.636 55.5052C249.35 56.518 247.828 57.2887 246.071 57.7951C244.313 58.3235 242.427 58.5878 240.391 58.5878L240.434 58.6318Z" fill="#DD67C3"/>
<path d="M267.254 20.606H289.631C290.359 20.606 291.002 20.7381 291.581 20.9803C292.095 21.2665 292.545 21.6188 292.931 22.0151C293.317 22.4115 293.617 22.8518 293.831 23.3583C294.003 23.8647 294.089 24.3491 294.089 24.8335C294.089 25.3179 294.003 25.7803 293.831 26.2867C293.66 26.8372 293.381 27.2996 293.038 27.6959C292.653 28.0923 292.181 28.4225 291.624 28.6647C291.045 28.951 290.402 29.1051 289.673 29.1051H283.586C283.479 29.1051 283.329 29.1712 283.179 29.3033C283.008 29.4574 282.901 29.6776 282.901 29.9418V54.5365C282.901 54.9989 282.815 55.5054 282.643 56.0118C282.472 56.5182 282.193 56.9586 281.85 57.3549C281.464 57.7953 280.993 58.1256 280.414 58.3898C279.857 58.676 279.214 58.8081 278.485 58.8081C277.757 58.8081 277.114 58.676 276.599 58.3898C276.042 58.1256 275.592 57.7953 275.227 57.3549C274.842 56.9146 274.563 56.4522 274.392 55.9678C274.177 55.4613 274.091 54.9769 274.091 54.4925V29.8978C274.091 29.6115 274.027 29.3914 273.877 29.2592C273.706 29.1271 273.534 29.0611 273.406 29.0611H267.297C266.59 29.0611 265.968 28.929 265.411 28.6647C264.832 28.4666 264.361 28.1583 263.975 27.762C263.589 27.3657 263.289 26.9253 263.096 26.4189C262.882 25.9565 262.775 25.45 262.775 24.9216C262.775 24.4592 262.882 23.9748 263.096 23.4464C263.268 22.9619 263.546 22.4996 263.932 22.0592C264.318 21.6628 264.789 21.3106 265.368 21.0243C265.882 20.7821 266.504 20.65 267.254 20.65V20.606Z" fill="#4F8FBC"/>
<path d="M306.763 58.742C306.099 58.742 305.499 58.6319 304.942 58.3677C304.341 58.1475 303.848 57.8392 303.463 57.4429C303.034 57.0466 302.734 56.6062 302.52 56.0998C302.262 55.5933 302.134 55.0649 302.134 54.5144V24.7894C302.134 24.327 302.241 23.8426 302.455 23.3141C302.627 22.8297 302.905 22.3673 303.291 21.927C303.677 21.5306 304.149 21.1783 304.727 20.8921C305.263 20.6499 305.885 20.5178 306.613 20.5178H321.467C322.195 20.5178 322.838 20.6499 323.396 20.8921C323.931 21.1783 324.382 21.5306 324.767 21.927C325.153 22.3233 325.453 22.7637 325.646 23.2701C325.818 23.7765 325.925 24.283 325.925 24.7894C325.925 25.2518 325.839 25.7362 325.646 26.2426C325.475 26.749 325.217 27.2114 324.874 27.5857C324.489 27.9821 324.017 28.3124 323.438 28.5546C322.881 28.8408 322.238 28.9949 321.509 28.9949H311.736C311.629 28.9949 311.479 29.061 311.307 29.1931C311.136 29.3472 311.05 29.5674 311.05 29.8316V33.5528C311.05 33.839 311.136 34.0372 311.307 34.1473C311.479 34.2794 311.629 34.3454 311.736 34.3454H318.766C319.495 34.3454 320.138 34.4775 320.716 34.7418C321.252 35.028 321.702 35.3583 322.088 35.7546C322.453 36.151 322.753 36.6133 322.967 37.0978C323.138 37.6042 323.224 38.1106 323.224 38.595C323.224 39.0794 323.138 39.5638 322.967 40.0703C322.753 40.5767 322.474 41.0171 322.11 41.4134C321.724 41.8538 321.274 42.184 320.759 42.4483C320.181 42.7345 319.538 42.8666 318.809 42.8666H311.779C311.672 42.8666 311.522 42.9327 311.35 43.0868C311.179 43.2189 311.093 43.4391 311.093 43.7253V49.3401C311.093 49.6263 311.179 49.8245 311.35 49.9346C311.522 50.0887 311.672 50.1548 311.779 50.1548H321.531C322.26 50.1548 322.903 50.2869 323.481 50.5291C324.017 50.8153 324.467 51.1456 324.853 51.5419C325.239 51.9383 325.539 52.4006 325.732 52.8851C325.903 53.3915 326.01 53.8979 326.01 54.3823C326.01 54.8667 325.925 55.3511 325.732 55.8576C325.56 56.364 325.303 56.8044 324.939 57.2007C324.553 57.6411 324.081 57.9713 323.524 58.2356C322.945 58.5218 322.302 58.6539 321.574 58.6539H306.721L306.763 58.742Z" fill="#52AE89"/>
<path d="M353.023 42.6244C353.131 42.8666 353.323 43.2409 353.602 43.7033C353.881 44.1437 354.181 44.6281 354.545 45.1565C354.867 45.751 355.21 46.3235 355.595 46.94C356.324 48.1731 357.031 49.296 357.717 50.3309C358.339 51.3878 358.746 52.0483 358.918 52.3346C359.325 52.9731 359.539 53.6997 359.539 54.4924C359.539 54.9548 359.453 55.4612 359.282 55.9676C359.068 56.4961 358.789 56.9585 358.425 57.3548C358.039 57.7511 357.589 58.0814 357.074 58.3456C356.496 58.6319 355.853 58.764 355.124 58.764C354.267 58.764 353.495 58.5658 352.873 58.1695C352.209 57.7732 351.695 57.2667 351.309 56.6722L343.957 44.518C343.743 44.2317 343.507 44.0996 343.271 44.0996C343.228 44.0996 343.164 44.0996 343.057 44.1657C342.95 44.2317 342.907 44.4079 342.907 44.6501V54.5144C342.907 54.9768 342.821 55.4832 342.628 55.9896C342.457 56.4961 342.2 56.9364 341.835 57.3328C341.449 57.7731 340.978 58.1034 340.421 58.3677C339.842 58.6539 339.199 58.786 338.47 58.786C337.741 58.786 337.098 58.6539 336.584 58.3677C336.005 58.1034 335.555 57.7731 335.212 57.3328C334.827 56.9144 334.548 56.452 334.376 55.9456C334.162 55.4392 334.055 54.9548 334.055 54.4704V24.8114C334.055 24.305 334.162 23.7985 334.376 23.3141C334.548 22.8077 334.827 22.3453 335.212 21.9049C335.598 21.5086 336.07 21.1783 336.648 20.8921C337.163 20.6279 337.784 20.4958 338.535 20.4958H347.086C349.037 20.4958 350.794 20.826 352.338 21.4866C353.838 22.1692 355.124 23.0719 356.174 24.1729C357.203 25.2958 357.974 26.5509 358.532 27.96C359.068 29.3912 359.325 30.8445 359.325 32.3197C359.325 34.8078 358.789 36.8555 357.696 38.4849C356.603 40.1363 355.06 41.5455 353.023 42.6905V42.6244ZM342.843 34.6317C342.843 34.9179 342.928 35.1381 343.1 35.2702C343.271 35.4243 343.421 35.4904 343.528 35.4904H346.979C348.072 35.4904 348.908 35.2041 349.508 34.6096C350.066 34.0812 350.366 33.2885 350.366 32.2316C350.366 31.1748 350.087 30.3821 349.508 29.8096C348.908 29.2812 348.072 29.0169 346.979 29.0169H343.528C343.421 29.0169 343.271 29.083 343.1 29.2151C342.928 29.3692 342.843 29.5894 342.843 29.8536V34.6096V34.6317Z" fill="#FCB25A"/>
<path d="M381.987 58.6318C380.787 58.6318 379.587 58.5658 378.365 58.4336C377.143 58.2795 375.964 58.0373 374.807 57.663C373.607 57.3327 372.492 56.8703 371.442 56.2538C370.392 55.6593 369.449 54.8666 368.634 53.8758C367.927 53.0611 367.584 52.1363 367.584 51.1235C367.584 50.6611 367.691 50.1767 367.906 49.6482C368.077 49.1638 368.356 48.7014 368.741 48.2611C369.084 47.8207 369.534 47.4684 370.113 47.1822C370.628 46.9179 371.249 46.7858 371.999 46.7858C372.857 46.7858 373.564 46.962 374.1 47.2923C374.614 47.6446 375.171 48.1069 375.772 48.6354C376.114 48.9657 376.565 49.2079 377.079 49.406C377.593 49.6262 378.151 49.7583 378.751 49.8244C379.308 49.9345 379.865 50.0005 380.423 50.0446C380.98 50.0886 381.473 50.1106 381.944 50.1106C383.595 50.1106 384.945 49.8684 385.995 49.406C387.003 48.9436 387.517 48.129 387.517 46.984C387.517 46.5216 387.453 46.1693 387.324 45.9051C387.153 45.6188 386.788 45.3546 386.274 45.0904C385.695 44.8922 385.116 44.6721 384.495 44.4519C383.852 44.2757 383.23 44.1216 382.652 43.9675C382.051 43.8353 381.601 43.7473 381.28 43.7032C379.737 43.3069 378.193 42.8665 376.65 42.3601C375.107 41.8537 373.735 41.1711 372.514 40.2904C371.292 39.4757 370.285 38.3968 369.513 37.0536C368.741 35.7545 368.356 34.1031 368.356 32.0774C368.356 30.404 368.699 28.8407 369.406 27.3875C370.092 25.9563 371.078 24.7232 372.299 23.6884C373.5 22.6755 374.914 21.8829 376.607 21.3104C378.301 20.7379 380.101 20.4296 382.03 20.4296C383.959 20.4296 385.888 20.7159 387.646 21.3104C389.36 21.8829 390.882 22.8737 392.211 24.2829C393.047 25.1416 393.475 26.1545 393.475 27.2994C393.475 27.7618 393.39 28.2462 393.197 28.7526C392.982 29.2591 392.704 29.7215 392.361 30.0958C391.975 30.4921 391.525 30.8224 390.989 31.0646C390.432 31.3508 389.789 31.4829 389.06 31.4829C387.946 31.4829 386.96 31.1306 386.124 30.404C385.781 30.1178 385.459 29.8756 385.159 29.6554C384.881 29.4793 384.602 29.3251 384.323 29.215C384.002 29.127 383.68 29.0389 383.337 29.0169C382.995 28.9728 382.566 28.9508 382.073 28.9508C380.68 28.9508 379.522 29.237 378.601 29.8095C377.679 30.404 377.229 31.1967 377.229 32.2316C377.229 32.738 377.293 33.0903 377.443 33.2444C377.679 33.5307 378.065 33.7949 378.601 34.0151C379.094 34.2573 379.651 34.4775 380.272 34.6536C380.851 34.8298 381.451 34.9839 382.051 35.072C382.609 35.2261 383.059 35.3362 383.423 35.4022C384.945 35.7545 386.488 36.1949 388.031 36.7013C389.575 37.2078 390.946 37.8683 392.189 38.7491C393.411 39.6078 394.418 40.6867 395.19 41.9858C395.919 43.3069 396.283 44.9583 396.283 46.94C396.283 48.8115 395.919 50.4629 395.19 51.9162C394.461 53.3474 393.454 54.5584 392.189 55.5052C390.903 56.518 389.382 57.2887 387.624 57.7951C385.867 58.3235 383.98 58.5878 381.944 58.5878L381.987 58.6318Z" fill="#FB7859"/>
<path d="M68.6273 104.594C68.5413 104.594 68.3693 104.697 68.3693 104.918V108.569C68.3693 109.29 67.8104 110.203 66.6783 110.203C65.5462 110.203 64.9873 109.275 64.9873 108.554V97.218C64.9873 96.4819 65.5892 95.5691 66.6926 95.5691H69.96C72.9694 95.5691 74.6175 97.8216 74.6175 100.089C74.6175 102.356 72.9264 104.608 69.9457 104.608H68.6273V104.594ZM68.3693 100.972C68.3693 101.193 68.5556 101.296 68.6273 101.296H69.9457C70.7625 101.296 71.2354 100.84 71.2354 100.059C71.2354 99.279 70.7769 98.8227 69.9457 98.8227H68.6273C68.5413 98.8227 68.3693 98.9257 68.3693 99.1466V100.957V100.972Z" fill="#395596"/>
<path d="M97.0593 106.641C97.0593 106.861 97.2456 106.95 97.3173 106.95H101.273C102.376 106.95 102.978 107.833 102.978 108.584C102.978 109.335 102.419 110.218 101.287 110.218H95.3827C94.2649 110.218 93.6917 109.29 93.6917 108.569V97.2332C93.6917 96.4971 94.2935 95.5844 95.397 95.5844C96.5578 95.5844 97.045 96.5707 97.045 97.2332V106.655L97.0593 106.641Z" fill="#4C90C1"/>
<path d="M134.347 107.98C134.433 108.141 134.461 108.348 134.461 108.554C134.461 109.275 133.86 110.158 132.756 110.158C131.939 110.158 131.395 109.628 131.165 109.084L130.062 106.169C130.005 106.066 129.876 106.007 129.818 106.007H126.422C126.336 106.007 126.221 106.066 126.178 106.169L125.061 109.084C124.86 109.614 124.301 110.158 123.47 110.158C122.381 110.158 121.779 109.275 121.779 108.554C121.779 108.348 121.822 108.141 121.879 107.98L126.193 96.8498C126.451 96.1726 127.182 95.569 128.113 95.569C129.045 95.569 129.761 96.1873 130.005 96.8498L134.318 107.98H134.347ZM127.54 102.694C127.54 102.694 127.525 102.753 127.497 102.783H128.701C128.701 102.783 128.686 102.724 128.658 102.68C128.6 102.474 128.471 102.209 128.371 101.944C128.285 101.693 128.185 101.472 128.113 101.266C127.912 101.737 127.712 102.209 127.525 102.709L127.54 102.694Z" fill="#4EB28A"/>
<path d="M156.187 100.457L158.681 96.3787C158.939 95.9517 159.469 95.5984 160.128 95.5984C161.246 95.5984 161.819 96.5112 161.819 97.2325C161.819 97.527 161.733 97.8067 161.576 98.0717L157.936 104.034C157.936 104.034 157.878 104.152 157.878 104.225V108.598C157.878 109.319 157.291 110.232 156.187 110.232C155.084 110.232 154.482 109.304 154.482 108.583V104.211C154.482 104.211 154.482 104.093 154.425 104.019L150.785 98.057C150.627 97.792 150.541 97.4975 150.541 97.2031C150.541 96.4817 151.1 95.569 152.232 95.569C152.891 95.569 153.421 95.9223 153.694 96.3492L156.187 100.457Z" fill="#FBBC5D"/>
<path d="M186.927 106.949C187.687 106.949 188.79 106.699 189.292 106.316C189.406 106.213 189.449 106.154 189.449 105.918C189.449 105.683 189.263 105.609 189.191 105.609H186.597C185.48 105.609 184.906 104.667 184.906 103.96C184.906 103.254 185.494 102.312 186.612 102.312H191.155C192.244 102.312 192.86 103.195 192.86 103.946V106.846C192.86 107.273 192.702 107.611 192.416 107.935C191.112 109.393 189.005 110.188 186.941 110.188C182.742 110.188 179.575 107.258 179.575 102.871C179.575 98.4839 182.742 95.569 186.941 95.569C188.847 95.569 191.14 96.2903 192.416 97.8214C192.702 98.1453 192.831 98.4986 192.831 98.9108C192.831 99.6322 192.244 100.545 191.126 100.545C190.438 100.545 190.123 100.236 189.679 99.8089C188.933 99.1317 187.887 98.8372 186.927 98.8372C184.305 98.8372 182.929 100.648 182.929 102.915C182.929 105.182 184.276 106.964 186.898 106.964L186.927 106.949Z" fill="#FB795B"/>
<path d="M219.415 104.432C219.615 104.756 219.902 105.212 220.174 105.668C220.733 106.596 221.321 107.523 221.435 107.729C221.593 107.98 221.679 108.259 221.679 108.554C221.679 109.29 221.091 110.188 219.988 110.188C219.329 110.188 218.799 109.835 218.526 109.378L215.717 104.741C215.631 104.638 215.517 104.579 215.46 104.579C215.445 104.579 215.316 104.594 215.316 104.785V108.554C215.316 109.275 214.757 110.188 213.625 110.188C212.493 110.188 211.934 109.26 211.934 108.539V97.2033C211.934 96.4672 212.536 95.5544 213.64 95.5544H216.907C219.902 95.5544 221.579 97.8069 221.579 100.074C221.579 101.944 220.719 103.166 219.171 104.034C219.214 104.137 219.286 104.284 219.386 104.446L219.415 104.432ZM215.302 100.972C215.302 101.193 215.488 101.296 215.56 101.296H216.878C217.695 101.296 218.168 100.84 218.168 100.059C218.168 99.2791 217.709 98.8227 216.878 98.8227H215.56C215.474 98.8227 215.302 98.9257 215.302 99.1466V100.957V100.972Z" fill="#FA4C71"/>
<path d="M240.122 102.871C240.122 98.4839 243.289 95.569 247.488 95.569C251.687 95.569 254.84 98.4839 254.84 102.871C254.84 107.258 251.673 110.188 247.488 110.188C243.303 110.188 240.122 107.258 240.122 102.871ZM247.488 98.8225C244.865 98.8225 243.518 100.589 243.518 102.871C243.518 105.153 244.865 106.92 247.488 106.92C250.11 106.92 251.443 105.168 251.443 102.871C251.443 100.574 250.096 98.8225 247.488 98.8225Z" fill="#DD67C3"/>
<path d="M281.924 97.2325C281.924 96.4964 282.526 95.5837 283.63 95.5837C284.733 95.5837 285.335 96.467 285.335 97.2178V104.726C285.335 107.317 283.271 110.217 279.818 110.217H279.13C275.662 110.217 273.584 107.332 273.584 104.726V97.2178C273.584 96.4817 274.186 95.569 275.289 95.569C276.393 95.569 276.995 96.4523 276.995 97.2031V104.711C276.995 105.86 277.897 106.92 279.144 106.92H279.832C281.05 106.92 281.982 105.874 281.967 104.711L281.924 97.2473V97.2325Z" fill="#4F8FBC"/>
<path d="M307.82 101.811V108.568C307.82 109.29 307.261 110.202 306.128 110.202C304.996 110.202 304.438 109.275 304.438 108.554V97.2177C304.438 96.4816 305.039 95.5688 306.143 95.5688C306.702 95.5688 307.16 95.8338 307.461 96.1724L313.939 103.887V97.2471C313.939 96.5257 314.541 95.613 315.644 95.613C316.747 95.613 317.349 96.4963 317.349 97.2177V108.583C317.349 109.304 316.762 110.217 315.658 110.217C315.099 110.217 314.641 109.952 314.34 109.599L307.791 101.826L307.82 101.811Z" fill="#52AE89"/>
<path d="M338.2 110.203C337.053 110.203 336.466 109.275 336.466 108.539V97.2178C336.466 96.4817 337.053 95.569 338.2 95.569H341.539C345.752 95.569 348.905 98.4986 348.905 102.886C348.905 107.273 345.738 110.203 341.539 110.203H338.2ZM341.539 106.934C344.161 106.934 345.508 105.138 345.508 102.871C345.508 100.604 344.161 98.8225 341.539 98.8225H340.134C340.048 98.8225 339.877 98.9256 339.877 99.1464V106.61C339.877 106.831 340.063 106.92 340.134 106.92H341.539V106.934Z" fill="#FCB25A"/>
<rect x="6" y="4" width="403" height="72" rx="36" fill="url(#paint0_linear_327_305)"/>
<rect x="6" y="4" width="403" height="72" rx="36" fill="url(#paint1_linear_327_305)"/>
<defs>
<filter id="filter0_d_327_305" x="0" y="0" width="419" height="132" filterUnits="userSpaceOnUse" color-interpolation-filters="sRGB">
<feFlood flood-opacity="0" result="BackgroundImageFix"/>
<feColorMatrix in="SourceAlpha" type="matrix" values="0 0 0 0 0 0 0 0 0 0 0 0 0 0 0 0 0 0 127 0" result="hardAlpha"/>
<feOffset dx="2" dy="4"/>
<feGaussianBlur stdDeviation="4"/>
<feComposite in2="hardAlpha" operator="out"/>
<feColorMatrix type="matrix" values="0 0 0 0 0 0 0 0 0 0 0 0 0 0 0 0 0 0 0.25 0"/>
<feBlend mode="normal" in2="BackgroundImageFix" result="effect1_dropShadow_327_305"/>
<feBlend mode="normal" in="SourceGraphic" in2="effect1_dropShadow_327_305" result="shape"/>
</filter>
<linearGradient id="paint0_linear_327_305" x1="151.5" y1="271.5" x2="314.5" y2="-39" gradientUnits="userSpaceOnUse">
<stop offset="0.0625" stop-color="#FDF9EF" stop-opacity="0"/>
<stop offset="0.581731" stop-color="#FDF9EF" stop-opacity="0"/>
<stop offset="0.692308" stop-color="#FDF9EF" stop-opacity="0"/>
<stop offset="0.793269" stop-color="#FDF9EF" stop-opacity="0.6"/>
<stop offset="0.903846" stop-color="#FDF9EF" stop-opacity="0"/>
<stop offset="1" stop-color="#FDF9EF" stop-opacity="0"/>
</linearGradient>
<linearGradient id="paint1_linear_327_305" x1="151.5" y1="271.5" x2="314.5" y2="-39" gradientUnits="userSpaceOnUse">
<stop offset="0.475962" stop-color="#FDF9EF" stop-opacity="0"/>
<stop offset="0.514423" stop-color="#FDF9EF" stop-opacity="0.6"/>
<stop offset="0.581731" stop-color="#FDF9EF" stop-opacity="0"/>
<stop offset="0.692308" stop-color="#FDF9EF" stop-opacity="0"/>
<stop offset="0.903846" stop-color="#FDF9EF" stop-opacity="0"/>
<stop offset="1" stop-color="#FDF9EF" stop-opacity="0"/>
</linearGradient>
</defs>
</svg>
